<svg width="24" height="24" viewBox="0 0 24 24" fill="none" xmlns="http://www.w3.org/2000/svg">
<path d="M11.0031 7.05379V3.99979C11.0031 3.80204 10.9444 3.60874 10.8345 3.44433C10.7246 3.27992 10.5685 3.15178 10.3858 3.07611C10.2031 3.00044 10.0021 2.98064 9.8081 3.0192C9.61415 3.05777 9.43598 3.15298 9.29613 3.29279L2.29613 10.2928C2.20319 10.3856 2.12945 10.4958 2.07914 10.6171C2.02883 10.7384 2.00293 10.8685 2.00293 10.9998C2.00293 11.1311 2.02883 11.2612 2.07914 11.3825C2.12945 11.5038 2.20319 11.614 2.29613 11.7068L9.29613 18.7068C9.43579 18.8471 9.61399 18.9427 9.80811 18.9816C10.0022 19.0204 10.2035 19.0007 10.3864 18.925C10.5693 18.8492 10.7256 18.7208 10.8354 18.5561C10.9452 18.3914 11.0036 18.1978 11.0031 17.9998V14.9038C11.2871 14.8838 11.5681 14.8748 11.8461 14.8748C17.2721 14.8748 20.0851 18.4468 20.2081 18.6048C20.3342 18.7715 20.5095 18.8944 20.7093 18.9559C20.909 19.0175 21.1231 19.0146 21.3211 18.9478C21.5198 18.8812 21.6925 18.7538 21.8149 18.5837C21.9373 18.4136 22.0031 18.2093 22.0031 17.9998C22.0031 8.87579 13.9171 7.31879 11.0031 7.05379ZM11.8461 12.8748C11.1991 12.8748 10.5341 12.9198 9.87113 13.0078C9.63086 13.04 9.41044 13.1583 9.2508 13.3407C9.09117 13.5232 9.00316 13.7574 9.00313 13.9998V15.5858L4.41713 10.9998L9.00313 6.41379V7.99979C9.00313 8.55179 9.47413 8.99979 10.0251 8.99979C10.9351 8.99979 18.1391 9.20079 19.7041 15.4248C18.0501 14.2068 15.4231 12.8748 11.8461 12.8748Z" fill="#C4C4C4"/>
</svg>
